<svg xmlns="http://www.w3.org/2000/svg" viewBox="0 0 960 540" width="960" height="540" role="img"><title>일별 활성 사용자 (9/2~9/8)</title><rect width="960" height="540" fill="#ffffff"/><text x="72" y="54" font-size="24" fill="#151b23" font-weight="700">일별 활성 사용자 (9/2~9/8)</text><text x="888" y="54" font-size="16" fill="#1f6feb" text-anchor="end">급락 — 원인 확인 못함</text><line x1="72" y1="468" x2="888" y2="468" stroke="#d5dae1" stroke-width="2"/><rect x="89.5" y="92" width="81.6" height="376" rx="4" fill="#9aa4b2" /><text x="130.3" y="490" font-size="16" fill="#5b6472" text-anchor="middle">9/2</text><text x="130.3" y="84" font-size="18" fill="#39414d" text-anchor="middle" font-weight="600">19</text><rect x="206.1" y="112" width="81.6" height="356" rx="4" fill="#9aa4b2" /><text x="246.9" y="490" font-size="16" fill="#5b6472" text-anchor="middle">9/3</text><text x="246.9" y="104" font-size="18" fill="#39414d" text-anchor="middle" font-weight="600">18</text><rect x="322.6" y="72" width="81.6" height="396" rx="4" fill="#9aa4b2" /><text x="363.4" y="490" font-size="16" fill="#5b6472" text-anchor="middle">9/4</text><text x="363.4" y="64" font-size="18" fill="#39414d" text-anchor="middle" font-weight="600">20</text><rect x="439.2" y="290" width="81.6" height="178" rx="4" fill="#1f6feb" /><text x="480.0" y="490" font-size="16" fill="#5b6472" text-anchor="middle">9/5</text><text x="480.0" y="282" font-size="18" fill="#1f6feb" text-anchor="middle" font-weight="600">9</text><rect x="555.8" y="92" width="81.6" height="376" rx="4" fill="#9aa4b2" /><text x="596.6" y="490" font-size="16" fill="#5b6472" text-anchor="middle">9/6</text><text x="596.6" y="84" font-size="18" fill="#39414d" text-anchor="middle" font-weight="600">19</text><rect x="672.3" y="151" width="81.6" height="317" rx="4" fill="#9aa4b2" /><text x="713.1" y="490" font-size="16" fill="#5b6472" text-anchor="middle">9/7</text><text x="713.1" y="143" font-size="18" fill="#39414d" text-anchor="middle" font-weight="600">16</text><rect x="788.9" y="112" width="81.6" height="356" rx="4" fill="#9aa4b2" /><text x="829.7" y="490" font-size="16" fill="#5b6472" text-anchor="middle">9/8</text><text x="829.7" y="104" font-size="18" fill="#39414d" text-anchor="middle" font-weight="600">18</text></svg>